<svg width="84" height="84" viewBox="0 0 84 84" fill="none" xmlns="http://www.w3.org/2000/svg">
<path d="M37.653 53.172C38.738 54.2593 40.131 54.754 41.832 54.656C43.533 54.558 44.7732 53.9467 45.5525 52.822L63.945 27.195L38.1815 45.451C37.0102 46.2303 36.358 47.4413 36.225 49.084C36.092 50.7267 36.5692 52.0917 37.6565 53.179M42 17.5C45.2177 17.5 48.146 17.892 50.785 18.676C53.424 19.46 56.0548 20.657 58.6775 22.267L55.461 24.4475C53.4007 23.3205 51.268 22.4642 49.063 21.8785C46.858 21.2928 44.5037 21 42 21C34.2417 21 27.6348 23.7277 22.1795 29.183C16.7242 34.6383 13.9977 41.244 14 49C14 51.45 14.336 53.8708 15.008 56.2625C15.68 58.6542 16.6273 60.9 17.85 63H66.15C67.4917 60.7833 68.4693 58.4792 69.083 56.0875C69.6967 53.6958 70.0023 51.2167 70 48.65C70 46.55 69.7293 44.3403 69.188 42.021C68.649 39.7017 67.7938 37.541 66.6225 35.539L68.803 32.319C70.5063 35.2427 71.7115 37.9913 72.4185 40.565C73.1255 43.141 73.486 45.822 73.5 48.608C73.514 51.618 73.1792 54.4273 72.4955 57.036C71.8142 59.6423 70.7525 62.272 69.3105 64.925C69.0305 65.3917 68.6047 65.7708 68.033 66.0625C67.4637 66.3542 66.836 66.5 66.15 66.5H17.85C17.2083 66.5 16.6133 66.3425 16.065 66.0275C15.519 65.7148 15.0593 65.2575 14.686 64.6555C13.5287 62.6138 12.5417 60.3108 11.725 57.7465C10.9083 55.1822 10.5 52.2667 10.5 49C10.5 44.6973 11.3167 40.6362 12.95 36.8165C14.581 32.9968 16.8093 29.652 19.635 26.782C22.4583 23.912 25.795 21.6463 29.645 19.985C33.502 18.3283 37.6203 17.5 42 17.5Z" fill="currentColor"/>
</svg>
