<svg width="84" height="84" viewBox="0 0 84 84" fill="none" xmlns="http://www.w3.org/2000/svg">
<path d="M81.375 34.7812C80.8529 34.7812 80.3521 34.9887 79.9829 35.3579C79.6137 35.7271 79.4062 36.2279 79.4062 36.75V45.2812H72.8438V39.375C72.8438 38.1567 72.3598 36.9882 71.4983 36.1267C70.6368 35.2652 69.4683 34.7812 68.25 34.7812H64.0861C63.9128 34.7814 63.7465 34.713 63.6234 34.5909L52.0341 23.0016C51.6089 22.5739 51.1032 22.2349 50.5462 22.0039C49.9892 21.773 49.3919 21.6548 48.7889 21.6562H41.3438V15.0938H49.875C50.3971 15.0937 50.8979 14.8863 51.2671 14.5171C51.6363 14.1479 51.8438 13.6471 51.8438 13.125C51.8438 12.6029 51.6363 12.1021 51.2671 11.7329C50.8979 11.3637 50.3971 11.1563 49.875 11.1562H28.875C28.3529 11.1563 27.8521 11.3637 27.4829 11.7329C27.1137 12.1021 26.9062 12.6029 26.9062 13.125C26.9062 13.6471 27.1137 14.1479 27.4829 14.5171C27.8521 14.8863 28.3529 15.0938 28.875 15.0938H37.4062V21.6562H15.75C14.5317 21.6562 13.3632 22.1402 12.5017 23.0017C11.6402 23.8632 11.1562 25.0317 11.1562 26.25V45.2812H4.59375V36.75C4.59375 36.2279 4.38633 35.7271 4.01712 35.3579C3.6479 34.9887 3.14714 34.7812 2.625 34.7812C2.10286 34.7812 1.6021 34.9887 1.23288 35.3579C0.863671 35.7271 0.65625 36.2279 0.65625 36.75V57.75C0.65625 58.2721 0.863671 58.7729 1.23288 59.1421C1.6021 59.5113 2.10286 59.7188 2.625 59.7188C3.14714 59.7188 3.6479 59.5113 4.01712 59.1421C4.38633 58.7729 4.59375 58.2721 4.59375 57.75V49.2188H11.1562V56.6639C11.1548 57.2669 11.273 57.8642 11.5039 58.4212C11.7349 58.9782 12.0739 59.4839 12.5016 59.9091L24.0909 71.4984C24.5161 71.9261 25.0218 72.2651 25.5788 72.4961C26.1358 72.727 26.7331 72.8452 27.3361 72.8438H48.7889C49.3919 72.8452 49.9892 72.727 50.5462 72.4961C51.1032 72.2651 51.6089 71.9261 52.0341 71.4984L63.6234 59.9091C63.7465 59.787 63.9128 59.7186 64.0861 59.7188H68.25C69.4683 59.7188 70.6368 59.2348 71.4983 58.3733C72.3598 57.5118 72.8438 56.3433 72.8438 55.125V49.2188H79.4062V57.75C79.4062 58.2721 79.6137 58.7729 79.9829 59.1421C80.3521 59.5113 80.8529 59.7188 81.375 59.7188C81.8971 59.7188 82.3979 59.5113 82.7671 59.1421C83.1363 58.7729 83.3438 58.2721 83.3438 57.75V36.75C83.3437 36.2279 83.1363 35.7271 82.7671 35.3579C82.3979 34.9887 81.8971 34.7812 81.375 34.7812ZM68.9062 55.125C68.9062 55.299 68.8371 55.466 68.714 55.589C68.591 55.7121 68.424 55.7812 68.25 55.7812H64.0861C63.4831 55.7798 62.8858 55.898 62.3288 56.1289C61.7718 56.3599 61.2661 56.6989 60.8409 57.1266L49.2516 68.7159C49.1285 68.838 48.9622 68.9064 48.7889 68.9062H27.3361C27.1628 68.9064 26.9965 68.838 26.8734 68.7159L15.2841 57.1266C15.162 57.0035 15.0936 56.8372 15.0938 56.6639V26.25C15.0938 26.076 15.1629 25.909 15.286 25.786C15.409 25.6629 15.576 25.5938 15.75 25.5938H48.7889C48.9622 25.5936 49.1285 25.662 49.2516 25.7841L60.8409 37.3734C61.2661 37.8011 61.7718 38.1401 62.3288 38.3711C62.8858 38.602 63.4831 38.7202 64.0861 38.7188H68.25C68.424 38.7188 68.591 38.7879 68.714 38.911C68.8371 39.034 68.9062 39.201 68.9062 39.375V55.125Z" fill="currentColor"/>
</svg>
