<svg width="84" height="84" viewBox="0 0 84 84" fill="none" xmlns="http://www.w3.org/2000/svg">
<path d="M11.8388 14.2307C11.6251 14.4151 11.4536 14.6432 11.3358 14.8997C11.2181 15.1561 11.1568 15.4349 11.1562 15.7171V70.8749C11.1563 71.3971 11.3637 71.8978 11.7329 72.267C12.1021 72.6362 12.6029 72.8437 13.125 72.8437C13.6471 72.8437 14.1479 72.6362 14.5171 72.267C14.8863 71.8978 15.0937 71.3971 15.0938 70.8749V56.0371C24.3075 48.5591 32.1169 52.4277 41.1272 56.8804C46.4166 59.5054 52.1161 62.3207 58.1897 62.3207C62.6423 62.3207 67.2984 60.8113 72.1547 56.6048C72.3687 56.4217 72.541 56.1949 72.6598 55.9396C72.7787 55.6843 72.8414 55.4065 72.8438 55.1249V15.7171C72.8441 15.3395 72.7359 14.9697 72.532 14.6519C72.3281 14.3341 72.037 14.0816 71.6936 13.9246C71.3502 13.7676 70.9688 13.7126 70.5951 13.7663C70.2213 13.82 69.8708 13.9801 69.5855 14.2274C60.0698 22.4699 52.103 18.5226 42.8728 13.9518C33.7214 9.42038 23.2969 4.31804 11.8388 14.2307ZM68.9062 54.1963C59.6925 61.6776 51.8831 57.8057 42.8728 53.3498C34.5844 49.2449 25.2952 44.6479 15.0938 51.1874V16.6424C24.3075 9.16116 32.1169 13.033 41.1272 17.4824C49.4156 21.5873 58.7048 26.1843 68.9062 19.6579V54.1963Z" fill="currentColor"/>
</svg>
