<svg width="297" height="115" viewBox="0 0 297 115" fill="none" xmlns="http://www.w3.org/2000/svg">
<path fill-rule="evenodd" clip-rule="evenodd" d="M0 57.9855C0.00377953 60.5065 4.41827 66.9884 6.14929 68.4662C8.90079 68.795 12.8428 68.3868 14.6986 67.2945C16.5808 66.1871 21.5471 56.5077 29.5824 52.2898C34.0724 49.9314 38.1657 48.1777 41.8998 44.8819C47.3537 40.0668 45.9439 38.264 54.7124 42.138C58.4391 43.7821 64.3087 47.2214 66.463 50.0485C68.8932 53.2384 70.8359 60.7521 70.6734 65.881C70.5222 70.7377 67.9294 77.1326 66.5386 81.8003C63.3751 92.4095 72.9411 94.2199 81.8041 91.5326C85.2586 90.4819 86.075 91.5515 90.0737 91.5515C92.2318 91.5515 94.7187 90.5084 97.1301 91.0413C98.7364 91.3966 99.6321 93.1351 101.681 94.0498C103.378 94.8132 106.038 95.0476 106.881 96.3742C107.822 97.8558 107.717 101.624 107.478 103.744C101.144 106.413 100.505 104.863 97.3455 110.188C96.5972 111.451 95.5049 112.384 96.1512 114.327C97.2397 114.879 104.863 114.682 106.5 114.52C112.838 113.896 109.784 111.519 112.486 109.599C113.915 108.998 115.23 109.304 116.84 109.1C119.633 108.748 121.432 106.314 124.547 108.238C126.248 109.285 125.718 109.308 127.918 109.992C135.466 112.328 134.91 113.019 144.854 112.758C146.347 109.429 145.3 108.283 140.746 104.243C134.117 98.3584 134.381 100.203 131.883 98.9632C133.277 96.8731 140.028 94.6507 143.259 93.9591C148.664 92.8025 151.461 95.3726 159.417 95.384C162.304 95.3877 162.637 94.5676 163.729 92.5833C165.785 88.8492 170.003 82.3824 173.117 79.9484C179.244 75.1559 185.008 75.4734 191.191 68.8857C197.492 62.1732 206.442 47.1534 211.517 45.5547C220.891 42.6029 231.054 44.7081 235.695 40.4863C238.526 37.9087 238.568 33.4224 241.421 31.5969C243.776 30.0851 250.363 33.0255 252.782 33.8759C260.035 36.4233 271.253 37.1225 278.661 35.4444C282.221 34.6394 286.209 32.5644 288.756 30.9241C292.573 28.4674 293.677 27.3449 295.366 22.9682C296.629 19.6989 297.347 12.9298 294.557 10.9417C290.037 8.2734 285.736 17.1931 274.466 17.2725C256.161 17.401 242.045 8.53041 226.798 14.2904C217.701 17.7298 220.766 25.1301 218.736 33.7739C213.558 35.2366 211.997 34.6432 207.666 32.2016C201.373 28.6526 202.809 28.8151 198.988 26.3055L179.407 16.3389C175.461 14.691 173.257 13.561 168.317 12.824C159.636 11.5351 138.183 17.4236 127.895 17.4501C124.441 17.4577 121.391 16.9814 117.653 16.9588C113.314 16.9285 111.757 16.8227 109.86 14.2526C110.487 12.1436 112.214 12.7635 112.237 9.37325C109.822 9.35813 102.682 10.5638 101.45 9.24096C100.702 8.20537 102.508 6.36474 102.697 4.00632C101.73 3.45073 100.101 2.92537 98.7402 3.12569L73.9313 6.686L71.9509 2.78931C69.9855 2.56254 65.828 3.27687 63.7757 3.73797C62.4302 4.04033 58.1027 5.52191 56.5833 5.55592C55.4192 4.61482 55.6422 3.98742 53.8243 3.12947C51.4621 3.23151 47.7468 5.81293 45.7323 6.93923C42.0019 9.02553 39.7153 11.2328 37.6706 11.0249C35.9924 8.50396 34.6923 1.96915 32.9424 0.510254C29.3707 1.32663 26.0296 11.6674 25.6895 15.84C25.2132 21.7777 19.3776 22.0195 15.9609 28.3692C11.1874 37.2473 9.71717 41.4539 3.63591 49.9729C1.65921 52.7433 0 53.2536 0 57.9855ZM83.1534 73.92C77.4161 78.395 79.5364 84.4195 86.4416 83.0287C90.7956 82.1518 90.5386 78.5159 85.9313 75.1446C83.5918 73.4325 84.189 73.1074 83.1534 73.92ZM108.499 70.08C108.355 72.0605 107.512 73.7424 108.049 75.9761C109.039 80.0882 112.195 80.5191 115.298 74.9556L124.959 74.9367C125.208 77.2649 125.163 78.0548 123.727 78.9846C119.49 81.7323 115.147 83.0551 114.248 86.7477C114.728 87.4583 117.687 90.5991 118.439 90.9921C120.317 91.2794 123.98 84.4536 132.393 82.5789C135.231 81.944 136.641 82.6318 138.38 80.6967C140.92 77.8734 142.636 76.1688 144.609 71.9395C145.935 69.0973 148.785 64.3238 149.095 61.2397C147.349 61.3304 133.958 68.0315 120.026 69.0633C116.149 69.3506 111.81 68.863 108.499 70.08Z" fill="#606062"/>
</svg>
