<?xml version="1.0" encoding="UTF-8"?>
<!DOCTYPE svg PUBLIC "-//W3C//DTD SVG 1.1//EN" "http://www.w3.org/Graphics/SVG/1.1/DTD/svg11.dtd">
<!-- Creator: CorelDRAW 2020 (64-Bit) -->
<svg xmlns="http://www.w3.org/2000/svg" xml:space="preserve" width="7.844mm" height="3.021mm" version="1.1" style="shape-rendering:geometricPrecision; text-rendering:geometricPrecision; image-rendering:optimizeQuality; fill-rule:evenodd; clip-rule:evenodd"
viewBox="0 0 7.844 3.021"
 xmlns:xlink="http://www.w3.org/1999/xlink"
 xmlns:xodm="http://www.corel.com/coreldraw/odm/2003">
 <defs>
  <style type="text/css">
   <![CDATA[
    .fil0 {fill:#606062}
   ]]>
  </style>
 </defs>
 <g id="Layer_x0020_1">
  <metadata id="CorelCorpID_0Corel-Layer"/>
  <path class="fil0" d="M-0.0575 1.5342c0.0001,0.0667 0.1169,0.2382 0.1627,0.2773 0.0728,0.0087 0.1771,-0.0021 0.2262,-0.031 0.0498,-0.0293 0.1812,-0.2854 0.3938,-0.397 0.1188,-0.0624 0.2271,-0.1088 0.3259,-0.196 0.1443,-0.1274 0.107,-0.1751 0.339,-0.0726 0.0986,0.0435 0.2539,0.1345 0.3109,0.2093 0.0643,0.0844 0.1157,0.2832 0.1114,0.4189 -0.004,0.1285 -0.0726,0.2977 -0.1094,0.4212 -0.0837,0.2807 0.1694,0.3286 0.4039,0.2575 0.0914,-0.0278 0.113,0.0005 0.2188,0.0005 0.0571,0 0.1229,-0.0276 0.1867,-0.0135 0.0425,0.0094 0.0662,0.0554 0.1204,0.0796 0.0449,0.0202 0.1153,0.0264 0.1376,0.0615 0.0249,0.0392 0.0221,0.1389 0.0158,0.195 -0.1676,0.0706 -0.1845,0.0296 -0.2681,0.1705 -0.0198,0.0334 -0.0487,0.0581 -0.0316,0.1095 0.0288,0.0146 0.2305,0.0094 0.2738,0.0051 0.1677,-0.0165 0.0869,-0.0794 0.1584,-0.1302 0.0378,-0.0159 0.0726,-0.0078 0.1152,-0.0132 0.0739,-0.0093 0.1215,-0.0737 0.2039,-0.0228 0.045,0.0277 0.031,0.0283 0.0892,0.0464 0.1997,0.0618 0.185,0.0801 0.4481,0.0732 0.0395,-0.0881 0.0118,-0.1184 -0.1087,-0.2253 -0.1754,-0.1557 -0.1684,-0.1069 -0.2345,-0.1397 0.0369,-0.0553 0.2155,-0.1141 0.301,-0.1324 0.143,-0.0306 0.217,0.0374 0.4275,0.0377 0.0764,0.0001 0.0852,-0.0216 0.1141,-0.0741 0.0544,-0.0988 0.166,-0.2699 0.2484,-0.3343 0.1621,-0.1268 0.3146,-0.1184 0.4782,-0.2927 0.1667,-0.1776 0.4035,-0.575 0.5378,-0.6173 0.248,-0.0781 0.5169,-0.0224 0.6397,-0.1341 0.0749,-0.0682 0.076,-0.1869 0.1515,-0.2352 0.0623,-0.04 0.2366,0.0378 0.3006,0.0603 0.1919,0.0674 0.4887,0.0859 0.6847,0.0415 0.0942,-0.0213 0.1997,-0.0762 0.2671,-0.1196 0.101,-0.065 0.1302,-0.0947 0.1749,-0.2105 0.0334,-0.0865 0.0524,-0.2656 -0.0214,-0.3182 -0.1196,-0.0706 -0.2334,0.1654 -0.5316,0.1675 -0.4843,0.0034 -0.8578,-0.2313 -1.2612,-0.0789 -0.2407,0.091 -0.1596,0.2868 -0.2133,0.5155 -0.137,0.0387 -0.1783,0.023 -0.2929,-0.0416 -0.1665,-0.0939 -0.1285,-0.0896 -0.2296,-0.156l-0.5181 -0.2637c-0.1044,-0.0436 -0.1627,-0.0735 -0.2934,-0.093 -0.2297,-0.0341 -0.7973,0.1217 -1.0695,0.1224 -0.0914,0.0002 -0.1721,-0.0124 -0.271,-0.013 -0.1148,-0.0008 -0.156,-0.0036 -0.2062,-0.0716 0.0166,-0.0558 0.0623,-0.0394 0.0629,-0.1291 -0.0639,-0.0004 -0.2528,0.0315 -0.2854,-0.0035 -0.0198,-0.0274 0.028,-0.0761 0.033,-0.1385 -0.0256,-0.0147 -0.0687,-0.0286 -0.1047,-0.0233l-0.6564 0.0942 -0.0524 -0.1031c-0.052,-0.006 -0.162,0.0129 -0.2163,0.0251 -0.0356,0.008 -0.1501,0.0472 -0.1903,0.0481 -0.0308,-0.0249 -0.0249,-0.0415 -0.073,-0.0642 -0.0625,0.0027 -0.1608,0.071 -0.2141,0.1008 -0.0987,0.0552 -0.1592,0.1136 -0.2133,0.1081 -0.0444,-0.0667 -0.0788,-0.2396 -0.1251,-0.2782 -0.0945,0.0216 -0.1829,0.2952 -0.1919,0.4056 -0.0126,0.1571 -0.167,0.1635 -0.2574,0.3315 -0.1263,0.2349 -0.1652,0.3462 -0.3261,0.5716 -0.0523,0.0733 -0.0962,0.0868 -0.0962,0.212zm2.2001 0.4216c-0.1518,0.1184 -0.0957,0.2778 0.087,0.241 0.1152,-0.0232 0.1084,-0.1194 -0.0135,-0.2086 -0.0619,-0.0453 -0.0461,-0.0539 -0.0735,-0.0324zm0.6706 -0.1016c-0.0038,0.0524 -0.0261,0.0969 -0.0119,0.156 0.0262,0.1088 0.1097,0.1202 0.1918,-0.027l0.2556 -0.0005c0.0066,0.0616 0.0054,0.0825 -0.0326,0.1071 -0.1121,0.0727 -0.227,0.1077 -0.2508,0.2054 0.0127,0.0188 0.091,0.1019 0.1109,0.1123 0.0497,0.0076 0.1466,-0.173 0.3692,-0.2226 0.0751,-0.0168 0.1124,0.0014 0.1584,-0.0498 0.0672,-0.0747 0.1126,-0.1198 0.1648,-0.2317 0.0351,-0.0752 0.1105,-0.2015 0.1187,-0.2831 -0.0462,0.0024 -0.4005,0.1797 -0.7691,0.207 -0.1026,0.0076 -0.2174,-0.0053 -0.305,0.0269z"/>
 </g>
</svg>
